<svg width="169" height="169" viewBox="0 0 169 169" fill="none" xmlns="http://www.w3.org/2000/svg">
<path d="M80.4305 110.026C80.4305 109.502 80.4305 109.133 80.4305 108.763C80.4305 94.4727 80.4322 80.1803 80.4288 65.8897C80.4288 64.8385 80.6249 63.8516 81.0964 62.8984C81.5899 61.8996 82.4078 61.3943 83.4353 61.2C84.9242 60.9194 86.43 61.0681 88.0085 61.0681C88.0085 77.3935 88.0085 93.653 88.0085 109.97C89.445 109.97 90.8037 109.97 92.2605 109.97C92.2605 109.193 92.2605 108.429 92.2605 107.667C92.2605 106.355 92.2149 105.042 92.2706 103.732C92.3366 102.167 92.9179 100.829 94.2361 99.8773C94.7161 99.5325 95.2484 99.3382 95.8264 99.328C97.0686 99.3078 98.3107 99.3213 99.5039 99.3213C99.7895 99.541 99.6813 99.7962 99.683 100.016C99.6965 103.648 99.6999 107.279 99.705 110.911C99.7066 112.273 99.421 113.565 98.7771 114.773C97.8443 116.524 96.401 117.458 94.4085 117.467C90.6432 117.482 86.8762 117.474 83.1108 117.474C60.8502 117.474 38.5895 117.474 16.3288 117.474C15.9959 117.474 15.6646 117.474 15.379 117.474C15.1171 117.249 15.1931 116.999 15.1931 116.774C15.1864 114.487 15.1391 112.199 15.1982 109.914C15.2405 108.261 15.9874 106.815 16.8865 105.475C17.7924 104.126 18.9787 103.031 20.2598 102.037C20.4795 101.866 20.6806 101.733 20.9763 101.735C23.9997 101.741 27.0231 101.74 30.1598 101.74C29.69 102.335 29.1154 102.62 28.6202 102.995C27.258 104.03 25.879 105.04 24.6825 106.274C23.9558 107.023 23.2832 107.81 22.8624 108.782C22.7305 109.088 22.5649 109.384 22.6917 109.728C22.8624 109.901 23.0736 109.848 23.2696 109.85C24.1096 109.857 24.9512 109.843 25.7911 109.858C43.5716 110.171 61.3555 109.967 79.1377 110.024C79.5331 110.026 79.9303 110.026 80.4305 110.026Z" fill="#2D8E84"/>
<path d="M122.128 109.537C122.339 109.617 122.4 109.661 122.461 109.661C124.6 109.632 126.735 109.916 128.881 109.723C129.449 109.673 130.054 109.987 130.59 109.431C130.59 107.491 130.595 105.51 130.588 103.528C130.585 102.274 130.992 101.157 131.739 100.173C132.357 99.3602 133.179 98.8954 134.24 98.9089C135.479 98.9242 136.718 98.9123 138.041 98.9123C138.041 102.493 138.041 106.007 138.041 109.495C138.867 109.713 144.429 109.772 146.232 109.603C146.455 109.384 146.366 109.098 146.366 108.841C146.374 107.16 146.354 105.478 146.376 103.796C146.391 102.608 146.658 101.476 147.363 100.491C148.088 99.4785 149.039 98.8836 150.331 98.9022C151.465 98.9191 152.599 98.9056 153.66 98.9056C153.888 99.1624 153.824 99.3737 153.824 99.5664C153.827 103.534 153.842 107.503 153.814 111.471C153.802 113.066 153.224 114.47 152.158 115.669C151.093 116.865 149.71 117.22 148.183 117.181C146.476 117.139 144.772 117.034 143.064 117.242C142.543 117.306 141.999 117.134 141.467 117.132C136.422 117.122 131.377 117.085 126.334 117.154C125.004 117.173 123.669 116.99 122.277 117.181C122.067 117.867 121.885 118.57 121.636 119.251C120.82 121.494 119.294 123.201 117.518 124.734C116.833 125.325 116.111 125.525 115.224 125.508C112.838 125.464 110.45 125.496 108.062 125.489C107.739 125.488 107.403 125.562 107.004 125.373C107.712 124.653 108.506 124.124 109.277 123.568C110.72 122.525 112.072 121.384 113.247 120.036C113.918 119.265 114.41 118.413 114.653 117.425C114.359 117.095 113.985 117.125 113.622 117.125C111.143 117.125 108.664 117.127 106.184 117.125C105.95 117.125 105.713 117.12 105.478 117.103C104.339 117.019 103.484 116.375 103.202 115.297C103.085 114.852 102.985 114.393 102.987 113.911C102.997 110.313 102.985 106.715 102.977 103.117C102.975 102.368 103.132 101.659 103.455 100.983C104.111 99.612 105.213 98.9343 106.717 98.9123C107.961 98.8937 109.204 98.9022 110.45 98.9022C113.98 98.9022 117.511 98.9039 121.043 98.9039C121.374 98.9039 121.704 98.9039 122.125 98.9039C122.128 102.487 122.128 106 122.128 109.537ZM110.523 109.71C111.922 109.71 113.274 109.71 114.614 109.71C114.614 108.518 114.614 107.394 114.614 106.266C113.22 106.266 111.893 106.266 110.523 106.266C110.523 107.438 110.523 108.561 110.523 109.71Z" fill="#2D8E84"/>
<path d="M125.244 76.9187C125.412 77.38 125.349 77.718 125.351 78.0476C125.356 82.0157 125.347 85.9838 125.363 89.9519C125.364 90.6296 125.263 91.2955 125.129 91.9411C124.795 93.5669 123.478 94.6653 121.731 94.907C120.867 95.027 120.004 95.0862 119.128 95.0862C110.856 95.0743 102.583 95.0794 94.3122 95.0726C93.9539 95.0726 93.5737 95.1842 93.1934 94.9188C93.0176 94.5369 93.0988 94.0941 93.0988 93.6699C93.0852 86.4401 93.0802 79.2103 93.0751 71.9805C93.0667 62.2613 93.0582 52.5438 93.0565 42.8246C93.0565 41.5351 93.4368 40.3927 94.4575 39.5206C94.9341 39.1134 95.5003 38.8413 96.0901 38.8142C97.4894 38.7483 98.8955 38.7939 100.388 38.7939C100.388 55.1058 100.388 71.3281 100.388 87.5944C102.414 87.5944 104.349 87.5944 106.269 87.5944C106.472 87.3257 106.377 87.0468 106.379 86.7899C106.389 84.9073 106.413 83.0229 106.372 81.1403C106.355 80.3054 106.566 79.5382 106.904 78.8165C107.55 77.4426 108.787 76.9694 110.2 76.9322C111.846 76.8882 113.495 76.922 115.143 76.922C118.102 76.922 121.062 76.9203 124.021 76.9203C124.418 76.9187 124.817 76.9187 125.244 76.9187ZM117.886 84.2482C116.451 84.2482 115.123 84.2482 113.828 84.2482C113.828 84.8431 113.801 85.4075 113.835 85.9669C113.867 86.5094 113.614 87.0806 113.94 87.5758C115.272 87.5758 116.564 87.5758 117.884 87.5758C117.886 86.4519 117.886 85.3906 117.886 84.2482Z" fill="#2D8E84"/>
<path d="M54.9114 62.8224C55.3187 62.8224 55.6483 62.8224 55.9795 62.8224C61.6275 62.8224 67.2755 62.8241 72.9217 62.8241C73.1567 62.8241 73.3933 62.8207 73.6282 62.8291C74.0152 62.8443 74.2501 63.0573 74.3329 63.4257C74.4816 64.0882 74.4529 64.7574 74.3582 65.425C74.294 65.8694 74.0067 66.0486 73.5893 66.0553C73.0181 66.0638 72.4469 66.0672 71.8756 66.0672C66.2615 66.0672 60.6473 66.0672 55.0331 66.0672C54.8658 66.0672 54.6968 66.0756 54.5295 66.0655C53.8754 66.0249 53.6219 65.7968 53.5746 65.1478C53.5442 64.7219 53.5696 64.2927 53.5696 63.8245C50.509 63.8245 47.5329 63.8245 44.5044 63.8245C44.2424 65.2391 44.212 66.679 44.0667 68.1053C43.8706 70.0421 43.7321 71.9839 43.5631 73.9223C43.3941 75.8607 43.22 77.7992 43.0476 79.7376C42.8566 81.8771 42.6589 84.015 42.4747 86.1545C42.3175 87.9932 42.1823 89.8353 42.0235 91.6741C41.8511 93.6801 41.6618 95.6844 41.4861 97.6905C41.4387 98.2262 41.4387 98.7653 41.3779 99.2993C41.2714 100.222 40.9267 100.511 40.0174 100.553C38.4525 100.628 38.0418 100.33 38.1939 98.7484C38.3984 96.6105 38.586 94.471 38.7702 92.3332C38.924 90.562 39.0592 88.7875 39.2113 87.0164C39.4581 84.14 39.7166 81.2653 39.9651 78.389C40.1898 75.7813 40.4045 73.1719 40.6309 70.5626C40.8946 67.5206 41.1633 64.4769 41.4354 61.4349C41.4861 60.862 41.7345 60.573 42.2804 60.4716C42.5744 60.4175 42.8837 60.4107 43.1845 60.4243C46.4428 60.573 49.7045 60.4648 52.9645 60.4834C54.8218 60.4936 54.8641 60.5257 54.8911 62.3897C54.8911 62.4894 54.8996 62.5892 54.9114 62.8224Z" fill="black"/>
<path d="M71.1895 99.0847C67.0304 99.0847 62.9457 99.0847 58.7985 99.0847C58.888 97.8645 58.9421 96.6984 59.0655 95.5391C59.2632 93.6733 59.4762 91.8093 59.7753 89.9553C60.4513 85.7523 61.3875 81.6219 62.9947 77.664C63.3006 76.9119 63.7011 76.2139 64.242 75.614C64.8182 74.9735 65.3793 74.9904 65.9455 75.641C66.5251 76.3052 66.8936 77.1029 67.2265 77.9039C68.5903 81.191 69.4742 84.6132 70.0927 88.1115C70.7282 91.7146 71.0729 95.3447 71.1895 99.0847Z" fill="black"/>
<path d="M63.2483 40.0243C70.4308 40.0496 76.7193 44.905 78.5394 51.6988C78.7997 52.6706 78.9636 53.6609 79.0481 54.6631C79.1123 55.4253 78.7912 55.7937 78.0358 55.8596C77.735 55.8866 77.4291 55.8849 77.1283 55.8613C76.4117 55.8055 76.2055 55.6162 76.1227 54.8743C75.8726 52.6063 75.2321 50.4719 73.8953 48.5993C71.3535 45.0419 67.9161 43.1423 63.5119 43.0105C57.5412 42.8331 52.1196 47.1443 50.82 53.0052C50.6831 53.6254 50.6122 54.2608 50.5091 54.8895C50.482 55.0518 50.4854 55.2309 50.4144 55.3746C50.1863 55.8427 49.1216 56.0675 48.2817 55.8444C47.8203 55.7227 47.5313 55.2664 47.5871 54.6563C47.7747 52.5708 48.2817 50.5682 49.2585 48.7075C51.4656 44.5095 54.8439 41.7498 59.439 40.5262C60.7386 40.1815 62.0653 39.982 63.2483 40.0243Z" fill="black"/>
<path d="M148.909 127.196C146.952 127.309 145.149 125.499 145.146 123.333C145.142 121.266 146.93 119.534 148.999 119.508C151.086 119.483 152.888 121.317 152.849 123.416C152.813 125.352 151.172 127.367 148.909 127.196Z" fill="#2D8E84"/>
<path d="M134.299 96.3249C131.769 96.4094 130.395 94.2209 130.407 92.5816C130.422 90.4066 132.104 88.6709 134.242 88.6236C135.977 88.5847 138.08 90.2071 138.097 92.4751C138.114 94.6856 136.102 96.4855 134.299 96.3249Z" fill="#2D8E84"/>
<path d="M91.0488 123.438C91.0184 121.464 92.6103 119.779 94.858 119.742C96.9486 119.706 98.7011 121.509 98.6758 123.585C98.6521 125.655 96.8759 127.396 94.8057 127.397C92.8554 127.399 90.9288 125.734 91.0488 123.438Z" fill="#2D8E84"/>
<path d="M120.609 67.044C122.474 67.0051 124.418 68.7509 124.386 70.9378C124.354 73.101 122.376 74.7589 120.458 74.6879C118.481 74.6135 116.801 73.1905 116.735 70.8448C116.678 68.7712 118.516 67.0254 120.609 67.044Z" fill="#2D8E84"/>
<path d="M112.52 67.0474C114.621 67.0761 116.358 68.8472 116.284 70.9259C116.215 72.8508 114.808 74.6456 112.486 74.6879C110.391 74.7267 108.667 72.9725 108.65 70.8532C108.633 68.7931 110.425 67.0322 112.52 67.0474Z" fill="#2D8E84"/>
<path d="M70.4156 125.793C70.6099 126.069 70.402 126.294 70.3412 126.546C70.1519 127.328 70.4139 127.833 71.1625 128.154C72.2357 128.614 73.2548 128.268 74.3482 127.962C73.7956 127.247 73.0368 127.458 72.3067 127.343C72.4148 126.811 72.7309 126.439 73.0097 125.973C74.7927 125.973 76.5993 125.973 78.4617 125.973C78.5833 125.107 78.683 124.264 79.5314 123.793C79.7072 124.394 79.4503 125.001 79.6244 125.69C80.8851 126.116 82.2185 125.864 83.5722 125.944C83.508 125.266 83.1768 124.81 82.7931 124.343C83.0365 123.869 83.2444 123.389 83.6669 122.988C84.8684 124.354 84.8634 125.809 84.1857 127.401C82.6765 127.401 81.2011 127.382 79.7275 127.411C79.141 127.423 78.923 127.017 78.6628 126.633C78.5191 126.877 78.3839 127.103 78.22 127.38C77.3682 127.38 76.5013 127.38 75.6461 127.38C75.5329 127.529 75.4416 127.625 75.3774 127.737C75.0157 128.381 74.6828 129.042 73.8885 129.278C72.7934 129.604 71.6949 129.904 70.5491 129.572C69.8021 129.356 69.3745 128.793 69.3306 128.026C69.285 127.264 69.7142 126.38 70.4156 125.793Z" fill="black"/>
<path d="M31.1044 125.929C31.2075 125.378 31.074 124.992 30.9287 124.624C30.5704 123.718 30.7631 122.932 31.4323 122.172C31.8413 122.942 31.8869 123.796 32.1489 124.58C32.2013 124.737 32.2165 124.906 32.2638 125.065C32.4886 125.817 32.4886 125.834 33.2812 125.873C33.8439 125.902 34.4084 125.878 35.0354 125.878C35.1402 125.055 35.2145 124.198 36.1204 123.782C36.2522 124.222 36.1018 124.639 36.0528 125.062C35.9919 125.584 36.1508 125.821 36.6764 125.866C37.7766 125.964 38.8818 125.968 40.0023 125.902C40.1155 125.232 39.6288 124.835 39.3516 124.266C39.573 123.874 39.8181 123.444 40.0936 122.958C41.4253 124.269 41.4084 125.728 40.7138 127.397C39.208 127.397 37.638 127.397 36.068 127.397C35.6286 127.397 35.4714 127.029 35.2551 126.757C34.9374 126.846 34.956 127.211 34.5757 127.406C33.9149 127.406 33.1155 127.374 32.3196 127.418C31.8142 127.445 31.5776 127.22 31.4627 126.784C31.1501 126.86 31.1687 127.233 30.8577 127.357C29.886 127.357 28.8534 127.357 27.7718 127.357C27.6112 126.407 27.7819 125.586 28.2821 124.732C28.5661 125.119 28.1993 125.581 28.779 125.902C29.4161 126 30.2425 125.922 31.1044 125.929Z" fill="black"/>
<path d="M21.7486 121.873C22.8775 121.428 23.9895 120.989 25.1911 120.516C25.0153 121.658 24.4475 122.344 23.2865 122.591C24.2413 123.427 25.061 124.293 25.137 125.582C25.1742 126.219 25.1252 126.853 24.6165 127.382C23.1614 127.382 21.6894 127.382 20.16 127.382C19.8321 127.946 19.4671 128.541 18.9482 129.025C18.4936 129.449 17.99 129.604 17.3934 129.393C16.7124 129.153 16.0482 128.874 15.2083 128.394C16.1851 128.406 16.9591 128.653 17.6385 128.188C18.2418 127.776 18.8891 127.412 19.2862 126.799C19.3099 126.194 18.7657 125.922 18.6085 125.44C18.7944 125.052 18.982 124.659 19.315 124.36C19.3741 124.399 19.4417 124.423 19.4755 124.47C20.6703 126.094 20.2394 125.707 22.1947 125.831C22.722 125.864 23.2527 125.836 23.8087 125.836C23.5062 124.849 23.5062 124.849 22.8944 124.136C21.6252 124.37 21.1723 123.539 21.7486 121.873Z" fill="black"/>
<path d="M55.9204 121.048C56.081 122.645 56.2398 124.208 56.4021 125.817C57.318 125.946 58.2053 125.962 59.1466 125.905C59.2903 125.106 59.3714 124.254 60.2553 123.759C60.4597 124.364 60.0694 124.943 60.2772 125.636C61.2912 126.262 62.4793 125.771 63.6133 125.968C63.691 125.256 63.1452 124.884 62.9593 124.32C63.1823 123.931 63.4105 123.531 63.6674 123.081C64.9602 124.369 64.7861 125.822 64.3873 127.394C63.0302 127.394 61.6613 127.385 60.2941 127.399C59.8192 127.404 59.6215 127.02 59.3055 126.686C59.0638 127.326 58.6531 127.472 58.0498 127.419C57.2183 127.348 56.3767 127.401 55.432 127.401C55.334 126.314 55.2343 125.259 55.1447 124.205C55.1193 123.904 55.1802 123.586 55.1024 123.302C54.854 122.395 55.072 121.661 55.9204 121.048Z" fill="black"/>
<path d="M50.8487 123.37C51.932 124.43 51.9185 125.608 50.8183 127.401C49.6065 127.401 48.339 127.401 47.0715 127.401C46.0998 127.401 45.1264 127.419 44.1546 127.396C43.2386 127.374 42.8229 126.936 42.8178 126.017C42.8127 125.129 43.1068 124.321 43.5073 123.546C43.8774 123.64 43.6476 123.884 43.6408 124.034C43.5783 125.469 43.9924 125.929 45.412 125.935C46.7876 125.942 48.1633 125.937 49.5373 125.937C49.8702 125.937 50.2031 125.937 50.5259 125.937C50.6898 125.423 50.3045 125.148 50.149 124.708C50.362 124.303 50.6003 123.847 50.8487 123.37Z" fill="black"/>
<path d="M68.5228 127.38C67.4226 127.38 66.3545 127.38 65.2053 127.38C65.2273 126.927 65.2493 126.488 65.2763 125.968C66.1551 125.968 66.9798 125.968 67.8586 125.968C67.7488 125.011 66.9798 124.795 66.3731 124.386C66.4306 123.814 66.6401 123.309 66.8632 122.807C68.5025 123.324 69.4388 125.655 68.5228 127.38Z" fill="black"/>
<path d="M53.3026 121.293C53.5696 122.829 53.7335 124.156 53.698 125.493C53.6794 126.159 53.4564 126.796 53.0575 127.367C52.7398 127.274 52.7888 127.007 52.7601 126.802C52.6198 125.81 52.5116 124.812 52.3528 123.823C52.2683 123.294 52.3697 122.834 52.6468 122.393C52.8429 122.082 53.0237 121.763 53.3026 121.293Z" fill="black"/>
<path d="M86.0785 127.431C85.9247 126.309 85.8148 125.178 85.6036 124.066C85.3991 122.993 85.8588 122.211 86.5888 121.335C86.697 123.475 87.4254 125.504 86.0785 127.431Z" fill="black"/>
<path d="M26.5532 127.321C26.4011 126.231 26.2896 125.133 26.0851 124.051C25.8806 122.975 26.3521 122.194 27.0737 121.347C27.1684 123.438 27.9069 125.449 26.7932 127.342C26.7138 127.336 26.6327 127.328 26.5532 127.321Z" fill="black"/>
<path d="M38.1484 129.143C37.5721 129.358 37.4167 128.851 37.104 128.568C37.3322 128.22 37.7327 128.21 37.9507 127.996C38.2718 128.006 38.3428 128.313 38.6216 128.372C38.9681 128.376 39.2216 128.029 39.6255 127.98C39.9229 128.112 40.1071 128.377 40.2559 128.68C40.0429 129.03 39.6458 129.092 39.3551 129.307C39.4244 129.856 39.0222 130.032 38.6909 130.221C38.2836 130.209 38.1062 129.953 37.9034 129.738C37.9406 129.515 38.14 129.427 38.2701 129.282C38.4881 129.116 38.7974 129.3 39.0137 129.091C38.6926 128.756 38.4171 128.898 38.1484 129.143Z" fill="black"/>
<path d="M46.6846 128.983C46.1252 128.984 45.821 128.609 45.4932 128.214C45.7382 127.828 46.1675 127.803 46.5393 127.546C47.1443 128.264 47.7933 127.984 48.4017 127.499C48.8056 127.739 49.0777 128.004 49.3278 128.399C48.8427 128.677 48.4338 128.996 47.8744 128.979L47.8997 129.004C47.4485 128.394 47.4029 128.386 46.8621 128.8L46.8874 128.783C46.7117 128.756 46.6187 128.81 46.6643 129.006L46.6846 128.983Z" fill="black"/>
<path d="M55.1515 119.449C54.5955 120.404 53.8434 120.666 52.9984 120.74C52.6689 120.769 52.3309 120.73 51.9997 120.703C51.7766 120.685 51.7293 120.847 51.6515 120.987C50.8031 120.14 50.8031 120.14 51.2155 119.461C52.4526 120.149 53.7353 120.024 55.1515 119.449Z" fill="black"/>
<path d="M58.7444 129.385C58.3692 129.173 58.0515 128.996 57.7135 128.805C57.5377 128.961 57.367 129.111 57.1913 129.266C56.7536 129.273 56.4561 129.03 56.1469 128.71C56.2804 128.323 56.5778 128.072 56.8533 127.82C57.1541 128.004 57.438 128.178 57.7338 128.359C58.0481 128.296 58.1343 127.931 58.452 127.806C58.8339 127.935 59.1567 128.205 59.4998 128.45C59.3156 128.822 59.0486 129.067 58.7444 129.385Z" fill="black"/>
<path d="M34.6704 129.028C34.4726 129.204 34.3003 129.358 34.0991 129.537C33.7392 129.398 33.3978 129.234 33.0902 128.949C33.2778 128.545 33.5364 128.256 33.8541 128.034C34.1397 128.214 34.4186 128.388 34.6957 128.562C35.0151 128.481 35.1283 128.139 35.4427 128.009C35.7739 128.217 36.1914 128.342 36.4094 128.751C36.2708 129.074 36.0156 129.29 35.7469 129.586C35.414 129.413 35.0726 129.236 34.6704 129.028Z" fill="black"/>
<path d="M81.5881 129.18C81.0609 129.077 81.0609 129.077 80.5894 128.506C80.8395 128.224 81.2011 128.148 81.4986 127.955C81.7233 128.121 81.9092 128.256 82.0799 128.383C82.4534 128.366 82.6697 128.048 82.9638 127.974C83.4167 128.046 83.5452 128.423 83.7733 128.692C83.3795 129.089 82.9266 129.295 82.3655 129.184L82.3943 129.212C82.4737 128.878 82.3182 128.758 82.0292 128.886C81.8653 128.959 81.6203 128.962 81.5628 129.206L81.5881 129.18Z" fill="black"/>
<path d="M77.1908 122.211C77.4004 121.732 77.7586 121.438 78.0916 121.094C78.6324 121.219 79.0261 121.582 79.4926 121.819C79.2374 122.283 78.9518 122.679 78.4617 122.934C78.0476 122.699 77.6285 122.459 77.1908 122.211Z" fill="black"/>
<path d="M61.5752 122.077C61.8811 121.737 62.1633 121.427 62.481 121.075C62.8985 121.298 63.2939 121.511 63.7756 121.77C63.4663 122.13 63.201 122.435 62.9035 122.779C62.4455 122.571 61.9791 122.449 61.5752 122.077Z" fill="black"/>
<path d="M47.8743 128.979C47.7864 129.179 48.0551 129.233 48.0197 129.511C47.8304 129.679 47.5718 129.907 47.3251 130.125C46.9583 129.985 46.7454 129.731 46.5308 129.518C46.4192 129.275 46.7707 129.199 46.6845 128.981L46.6643 129.003C46.8535 129.045 46.9279 128.971 46.8874 128.78L46.862 128.797C47.2372 128.719 47.5312 129.045 47.8997 129.001L47.8743 128.979Z" fill="black"/>
<path d="M67.4885 120.385C67.7741 121.264 67.6085 121.528 66.4948 121.896C66.7618 121.65 66.7618 121.356 66.7804 121.036C66.8006 120.668 67.0406 120.37 67.4885 120.385Z" fill="black"/>
<path d="M82.3689 129.184C82.4991 129.331 82.6292 129.479 82.8168 129.692C82.6089 129.92 82.4213 130.169 82.0951 130.22C81.7149 130.193 81.5898 129.885 81.3718 129.726C81.4411 129.511 81.7301 129.434 81.5898 129.179L81.5662 129.202C81.8417 129.373 82.1222 129.082 82.3993 129.209L82.3689 129.184Z" fill="black"/>
</svg>
